<?xml version="1.0" standalone="no"?>
<!DOCTYPE svg PUBLIC "-//W3C//DTD SVG 20010904//EN"
 "http://www.w3.org/TR/2001/REC-SVG-20010904/DTD/svg10.dtd">
<svg version="1.0" xmlns="http://www.w3.org/2000/svg"
 width="480.000000pt" height="480.000000pt" viewBox="0 0 480.000000 480.000000"
 preserveAspectRatio="xMidYMid meet">
<metadata>
Created by potrace 1.14, written by Peter Selinger 2001-2017
</metadata>
<g transform="translate(0.000000,480.000000) scale(0.100000,-0.100000)"
fill="#000000" stroke="none">
<path d="M1169 4201 c12 -17 39 -47 60 -68 104 -105 150 -191 176 -328 7 -38
7 -2781 0 -2815 -3 -14 -7 -37 -10 -52 -16 -84 -65 -173 -147 -263 -30 -33
-60 -70 -67 -82 l-11 -22 510 0 510 0 -18 27 c-9 15 -43 54 -74 87 -50 51
-151 215 -133 215 3 0 1 8 -4 18 -20 37 -24 145 -25 638 l-1 511 30 -13 c17
-6 53 -15 80 -18 28 -4 59 -9 70 -11 62 -14 425 -22 485 -11 14 3 48 7 75 11
469 55 828 321 967 715 15 41 29 86 32 100 2 14 11 58 19 99 19 97 19 314 1
420 -57 324 -233 572 -514 724 -53 29 -257 107 -275 106 -5 0 -61 10 -145 27
-19 4 -390 9 -824 11 l-788 4 21 -30z m1426 -366 c100 -25 220 -83 290 -140
148 -120 230 -263 270 -470 7 -37 7 -170 0 -210 -22 -128 -58 -222 -116 -308
-99 -146 -243 -246 -425 -293 -97 -25 -385 -24 -515 1 -13 3 -52 10 -87 16
-40 7 -65 17 -70 28 -6 12 -9 1358 -3 1393 1 3 133 5 294 4 241 -3 304 -6 362
-21z"/>
</g>
</svg>
